<svg width="99" height="16" viewBox="0 0 99 16" fill="none" xmlns="http://www.w3.org/2000/svg">
<path d="M1.24 15C1.10667 15 0.986667 14.9533 0.88 14.86C0.773333 14.7533 0.72 14.6267 0.72 14.48V12.06C0.72 11.8733 0.753333 11.72 0.82 11.6C0.9 11.48 0.966667 11.3933 1.02 11.34L7.06 4.52H1.44C1.29333 4.52 1.16667 4.47333 1.06 4.38C0.966667 4.27333 0.92 4.14667 0.92 4V1.52C0.92 1.37333 0.966667 1.25333 1.06 1.16C1.16667 1.05333 1.29333 0.999999 1.44 0.999999H11.96C12.1067 0.999999 12.2333 1.05333 12.34 1.16C12.4467 1.25333 12.5 1.37333 12.5 1.52V3.9C12.5 4.04667 12.4733 4.18 12.42 4.3C12.3667 4.40667 12.3067 4.5 12.24 4.58L6.46 11.44H12.22C12.3667 11.44 12.4867 11.4933 12.58 11.6C12.6867 11.6933 12.74 11.8133 12.74 11.96V14.48C12.74 14.6267 12.6867 14.7533 12.58 14.86C12.4867 14.9533 12.3667 15 12.22 15H1.24ZM19.5189 15.2C17.8522 15.2 16.5256 14.7733 15.5389 13.92C14.5656 13.0533 14.0656 11.7333 14.0389 9.96C14.0389 9.90667 14.0389 9.84 14.0389 9.76C14.0389 9.66667 14.0389 9.6 14.0389 9.56C14.0789 8.45333 14.3189 7.52 14.7589 6.76C15.2122 5.98667 15.8389 5.4 16.6389 5C17.4522 4.6 18.4056 4.4 19.4989 4.4C20.7256 4.4 21.7389 4.64667 22.5389 5.14C23.3522 5.62 23.9589 6.26667 24.3589 7.08C24.7589 7.88 24.9589 8.78 24.9589 9.78V10.34C24.9589 10.4733 24.9056 10.5933 24.7989 10.7C24.6922 10.8067 24.5656 10.86 24.4189 10.86H18.2589C18.2589 10.86 18.2589 10.8733 18.2589 10.9C18.2589 10.9267 18.2589 10.9533 18.2589 10.98C18.2589 11.3 18.2989 11.5867 18.3789 11.84C18.4722 12.08 18.6122 12.2733 18.7989 12.42C18.9856 12.5533 19.2122 12.62 19.4789 12.62C19.6522 12.62 19.7989 12.5933 19.9189 12.54C20.0389 12.4867 20.1389 12.42 20.2189 12.34C20.3122 12.2467 20.3922 12.16 20.4589 12.08C20.5789 11.96 20.6789 11.8867 20.7589 11.86C20.8389 11.82 20.9589 11.8 21.1189 11.8H24.2589C24.3789 11.8 24.4789 11.84 24.5589 11.92C24.6522 12 24.6922 12.1 24.6789 12.22C24.6656 12.46 24.5522 12.7533 24.3389 13.1C24.1256 13.4333 23.8056 13.76 23.3789 14.08C22.9656 14.4 22.4322 14.6667 21.7789 14.88C21.1256 15.0933 20.3722 15.2 19.5189 15.2ZM18.2589 8.62H20.7389V8.58C20.7389 8.22 20.6922 7.91333 20.5989 7.66C20.5056 7.40667 20.3656 7.22 20.1789 7.1C19.9922 6.96667 19.7656 6.9 19.4989 6.9C19.2322 6.9 19.0056 6.96667 18.8189 7.1C18.6322 7.22 18.4922 7.40667 18.3989 7.66C18.3056 7.91333 18.2589 8.22 18.2589 8.58V8.62Z" fill="#55FF39"/>
<path d="M27.3264 15C27.1931 15 27.0731 14.9533 26.9664 14.86C26.8597 14.7533 26.8064 14.6267 26.8064 14.48V1.52C26.8064 1.37333 26.8597 1.25333 26.9664 1.16C27.0731 1.05333 27.1931 0.999999 27.3264 0.999999H33.1664C34.3264 0.999999 35.3331 1.17333 36.1864 1.52C37.0531 1.86667 37.7264 2.39333 38.2064 3.1C38.6864 3.80667 38.9264 4.69333 38.9264 5.76C38.9264 6.82667 38.6864 7.70667 38.2064 8.4C37.7264 9.08 37.0531 9.58 36.1864 9.9C35.3331 10.22 34.3264 10.38 33.1664 10.38H31.2664V14.48C31.2664 14.6267 31.2131 14.7533 31.1064 14.86C31.0131 14.9533 30.8931 15 30.7464 15H27.3264ZM31.1864 7.16H33.0664C33.4531 7.16 33.7797 7.04667 34.0464 6.82C34.3264 6.58 34.4664 6.21333 34.4664 5.72C34.4664 5.34667 34.3597 5.00667 34.1464 4.7C33.9331 4.39333 33.5731 4.24 33.0664 4.24H31.1864V7.16ZM40.9545 15C40.8079 15 40.6812 14.9533 40.5745 14.86C40.4812 14.7533 40.4345 14.6267 40.4345 14.48V1.32C40.4345 1.17333 40.4812 1.05333 40.5745 0.96C40.6812 0.853333 40.8079 0.799999 40.9545 0.799999H44.1945C44.3279 0.799999 44.4479 0.853333 44.5545 0.96C44.6612 1.05333 44.7145 1.17333 44.7145 1.32V5.7C45.0612 5.3 45.4945 4.98667 46.0145 4.76C46.5479 4.52 47.1479 4.4 47.8145 4.4C48.5345 4.4 49.1945 4.56667 49.7945 4.9C50.4079 5.23333 50.8945 5.73333 51.2545 6.4C51.6279 7.06667 51.8145 7.90667 51.8145 8.92V14.48C51.8145 14.6267 51.7612 14.7533 51.6545 14.86C51.5479 14.9533 51.4279 15 51.2945 15H48.0345C47.8879 15 47.7612 14.9533 47.6545 14.86C47.5612 14.7533 47.5145 14.6267 47.5145 14.48V9.06C47.5145 8.56667 47.3945 8.18667 47.1545 7.92C46.9145 7.65333 46.5745 7.52 46.1345 7.52C45.6945 7.52 45.3479 7.65333 45.0945 7.92C44.8412 8.18667 44.7145 8.56667 44.7145 9.06V14.48C44.7145 14.6267 44.6612 14.7533 44.5545 14.86C44.4479 14.9533 44.3279 15 44.1945 15H40.9545ZM58.9944 15.2C57.821 15.2 56.8277 15.0267 56.0144 14.68C55.2144 14.3333 54.601 13.8267 54.1744 13.16C53.7477 12.48 53.5077 11.6667 53.4544 10.72C53.441 10.44 53.4344 10.1333 53.4344 9.8C53.4344 9.46667 53.441 9.16 53.4544 8.88C53.5077 7.92 53.761 7.10667 54.2144 6.44C54.6677 5.77333 55.2944 5.26667 56.0944 4.92C56.9077 4.57333 57.8744 4.4 58.9944 4.4C60.1144 4.4 61.0744 4.57333 61.8744 4.92C62.6877 5.26667 63.321 5.77333 63.7744 6.44C64.2277 7.10667 64.481 7.92 64.5344 8.88C64.561 9.16 64.5744 9.46667 64.5744 9.8C64.5744 10.1333 64.561 10.44 64.5344 10.72C64.481 11.6667 64.241 12.48 63.8144 13.16C63.3877 13.8267 62.7677 14.3333 61.9544 14.68C61.1544 15.0267 60.1677 15.2 58.9944 15.2ZM58.9944 12.38C59.4877 12.38 59.8277 12.2333 60.0144 11.94C60.201 11.6467 60.3077 11.2067 60.3344 10.62C60.3477 10.42 60.3544 10.1467 60.3544 9.8C60.3544 9.45333 60.3477 9.18 60.3344 8.98C60.3077 8.40667 60.201 7.97333 60.0144 7.68C59.8277 7.37333 59.4877 7.22 58.9944 7.22C58.5144 7.22 58.181 7.37333 57.9944 7.68C57.8077 7.97333 57.6944 8.40667 57.6544 8.98C57.641 9.18 57.6344 9.45333 57.6344 9.8C57.6344 10.1467 57.641 10.42 57.6544 10.62C57.6944 11.2067 57.8077 11.6467 57.9944 11.94C58.181 12.2333 58.5144 12.38 58.9944 12.38ZM72.1544 15C71.2477 15 70.4477 14.8667 69.7544 14.6C69.0744 14.3333 68.541 13.9 68.1544 13.3C67.781 12.6867 67.5944 11.88 67.5944 10.88V7.66H66.0144C65.8677 7.66 65.741 7.61333 65.6344 7.52C65.541 7.41333 65.4944 7.28667 65.4944 7.14V5.12C65.4944 4.97333 65.541 4.85333 65.6344 4.76C65.741 4.65333 65.8677 4.6 66.0144 4.6H67.5944V1.32C67.5944 1.17333 67.641 1.05333 67.7344 0.96C67.841 0.853333 67.9677 0.799999 68.1144 0.799999H71.0144C71.161 0.799999 71.281 0.853333 71.3744 0.96C71.481 1.05333 71.5344 1.17333 71.5344 1.32V4.6H74.0544C74.201 4.6 74.321 4.65333 74.4144 4.76C74.521 4.85333 74.5744 4.97333 74.5744 5.12V7.14C74.5744 7.28667 74.521 7.41333 74.4144 7.52C74.321 7.61333 74.201 7.66 74.0544 7.66H71.5344V10.54C71.5344 10.9267 71.6144 11.2333 71.7744 11.46C71.9344 11.6733 72.1877 11.78 72.5344 11.78H74.2144C74.361 11.78 74.481 11.8333 74.5744 11.94C74.681 12.0333 74.7344 12.1533 74.7344 12.3V14.48C74.7344 14.6267 74.681 14.7533 74.5744 14.86C74.481 14.9533 74.361 15 74.2144 15H72.1544ZM81.4944 15.2C80.321 15.2 79.3277 15.0267 78.5144 14.68C77.7144 14.3333 77.101 13.8267 76.6744 13.16C76.2477 12.48 76.0077 11.6667 75.9544 10.72C75.941 10.44 75.9344 10.1333 75.9344 9.8C75.9344 9.46667 75.941 9.16 75.9544 8.88C76.0077 7.92 76.261 7.10667 76.7144 6.44C77.1677 5.77333 77.7944 5.26667 78.5944 4.92C79.4077 4.57333 80.3744 4.4 81.4944 4.4C82.6144 4.4 83.5744 4.57333 84.3744 4.92C85.1877 5.26667 85.821 5.77333 86.2744 6.44C86.7277 7.10667 86.981 7.92 87.0344 8.88C87.061 9.16 87.0744 9.46667 87.0744 9.8C87.0744 10.1333 87.061 10.44 87.0344 10.72C86.981 11.6667 86.741 12.48 86.3144 13.16C85.8877 13.8267 85.2677 14.3333 84.4544 14.68C83.6544 15.0267 82.6677 15.2 81.4944 15.2ZM81.4944 12.38C81.9877 12.38 82.3277 12.2333 82.5144 11.94C82.701 11.6467 82.8077 11.2067 82.8344 10.62C82.8477 10.42 82.8544 10.1467 82.8544 9.8C82.8544 9.45333 82.8477 9.18 82.8344 8.98C82.8077 8.40667 82.701 7.97333 82.5144 7.68C82.3277 7.37333 81.9877 7.22 81.4944 7.22C81.0144 7.22 80.681 7.37333 80.4944 7.68C80.3077 7.97333 80.1944 8.40667 80.1544 8.98C80.141 9.18 80.1344 9.45333 80.1344 9.8C80.1344 10.1467 80.141 10.42 80.1544 10.62C80.1944 11.2067 80.3077 11.6467 80.4944 11.94C80.681 12.2333 81.0144 12.38 81.4944 12.38ZM93.3739 15.2C92.4672 15.2 91.6939 15.1067 91.0539 14.92C90.4139 14.72 89.8872 14.4733 89.4739 14.18C89.0739 13.8867 88.7806 13.5867 88.5939 13.28C88.4072 12.96 88.3072 12.68 88.2939 12.44C88.2806 12.2933 88.3206 12.1733 88.4139 12.08C88.5206 11.9733 88.6339 11.92 88.7539 11.92H91.6539C91.6672 11.92 91.6872 11.9267 91.7139 11.94C91.7406 11.94 91.7672 11.9533 91.7939 11.98C91.9672 12.0333 92.1272 12.12 92.2739 12.24C92.4339 12.36 92.6072 12.4667 92.7939 12.56C92.9939 12.6533 93.2272 12.7 93.4939 12.7C93.7206 12.7 93.9206 12.6533 94.0939 12.56C94.2806 12.4533 94.3739 12.3067 94.3739 12.12C94.3739 11.96 94.3206 11.82 94.2139 11.7C94.1206 11.58 93.9139 11.4667 93.5939 11.36C93.2739 11.24 92.7606 11.1133 92.0539 10.98C91.4006 10.8467 90.8006 10.6533 90.2539 10.4C89.7206 10.1333 89.2939 9.78 88.9739 9.34C88.6672 8.9 88.5139 8.36 88.5139 7.72C88.5139 7.17333 88.6939 6.64667 89.0539 6.14C89.4139 5.63333 89.9472 5.22 90.6539 4.9C91.3739 4.56667 92.2539 4.4 93.2939 4.4C94.0806 4.4 94.7739 4.49333 95.3739 4.68C95.9872 4.86667 96.5006 5.1 96.9139 5.38C97.3406 5.66 97.6606 5.96 97.8739 6.28C98.1006 6.6 98.2206 6.88667 98.2339 7.14C98.2472 7.28667 98.2072 7.41333 98.1139 7.52C98.0206 7.61333 97.9139 7.66 97.7939 7.66H95.1739C95.1339 7.66 95.0872 7.66 95.0339 7.66C94.9939 7.64667 94.9606 7.62667 94.9339 7.6C94.7472 7.56 94.5739 7.48667 94.4139 7.38C94.2672 7.26 94.1072 7.15333 93.9339 7.06C93.7606 6.95333 93.5406 6.9 93.2739 6.9C93.0472 6.9 92.8606 6.95333 92.7139 7.06C92.5806 7.16667 92.5139 7.30667 92.5139 7.48C92.5139 7.62667 92.5606 7.76 92.6539 7.88C92.7472 8 92.9606 8.11333 93.2939 8.22C93.6272 8.32667 94.1539 8.44 94.8739 8.56C95.8072 8.70667 96.5539 8.95333 97.1139 9.3C97.6739 9.63333 98.0739 10.0267 98.3139 10.48C98.5539 10.9333 98.6739 11.3867 98.6739 11.84C98.6739 12.52 98.4672 13.1133 98.0539 13.62C97.6539 14.1267 97.0539 14.52 96.2539 14.8C95.4672 15.0667 94.5072 15.2 93.3739 15.2Z" fill="white"/>
</svg>
